<?xml version="1.0" encoding="UTF-8"?>
<svg id="Layer_1" data-name="Layer 1" xmlns="http://www.w3.org/2000/svg" version="1.1" viewBox="0 0 100 100">
  <defs>
    <style>
      .cls-1 {
        fill: none;
        stroke: #000;
        stroke-linecap: round;
        stroke-linejoin: round;
        stroke-width: 8.3px;
      }

      .cls-2 {
        fill: #000;
        stroke-width: 0px;
      }
    </style>
  </defs>
  <path class="cls-1" d="M87.5,83.3"/>
  <path class="cls-1" d="M50,83.3"/>
  <path class="cls-2" d="M96.4,58.2l-.3-.4c-1.3-2-2.7-4.1-4-6.1s-.7-2.5,0-3.6c1.1-1.7,2.2-3.4,3.3-5.1l.8-1.3c1.5-2.4,2-5,1.2-7.3-.8-2.3-2.7-4.1-5.3-5.1-1.7-.6-3.4-1.3-5-1.9-.7-.3-1.4-.5-2-.8-1.2-.5-2.1-1.6-2.1-2.9s-.1-2.8-.2-4.1c0-1.2-.1-2.5-.2-3.7-.2-4.6-3.5-7.8-7.9-7.8s-1.6.1-2.4.3l-.7.2c-2.2.6-4.5,1.2-6.8,1.8s-2.6,0-3.4-1.1-1.8-2.2-2.6-3.3c-.8-.9-1.5-1.8-2.3-2.8-1.7-2.1-3.9-1.9-6.3-1.9s-4.8-.2-6.5,2l-1,1.2c-1.3,1.6-2.6,3.2-3.9,4.8s-2.2,1.5-3.4,1.1-3.2-.9-4.6-1.2c-.7-.2-1.4-.4-2-.5,0,0,0,0,0,0-1.1-.3-2.2-.4-3.1-.4-4.6,0-7.7,2.9-8,7.5-.2,2.8-.3,5.5-.4,8s-.9,2.5-2.1,2.9c-2.5,1-5,1.9-7.4,2.9-2.5,1-4.2,2.8-5,5-.7,2.3-.3,4.8,1.1,7,1.4,2.1,2.8,4.4,4.3,6.6s.7,2.5,0,3.6c-1.5,2.3-3,4.6-4.4,6.8-1.3,2.1-1.7,4.6-.9,6.8.7,2.2,2.5,4,4.9,5l.9.3c2.2.8,4.4,1.7,6.7,2.6s2,1.6,2.1,2.9,0,.5,0,.8c.2,2.2.3,4.3.3,6.5,0,2.3.9,4.5,2.4,6,1.5,1.5,3.5,2.3,5.7,2.3s1.8-.1,2.8-.4c2-.6,4.1-1.2,6.2-1.7.3,0,.6-.2,1-.3,1.3-.3,2.6.1,3.4,1.1,1.7,2.1,3.3,4.1,4.9,6,1.7,2.1,3.9,1.7,6.3,1.7s4.8.4,6.5-1.7c1.8-2.2,3.4-4.1,4.9-6s2.2-1.5,3.4-1.1c1.8.5,3.7,1,5.5,1.5l2.1.6c.8.2,1.6.3,2.4.3h0c4.3,0,7.7-3.3,7.9-7.8,0-1.1.1-2.3.2-3.4,0-1.5.2-3,.2-4.5s.9-2.5,2.1-2.9c2.2-.8,4.4-1.7,6.6-2.6l.7-.3c2.5-1,4.3-2.8,5.1-5.1.7-2.3.3-4.8-1.1-7.1ZM92.3,63.6c-.2.7-.9,1.3-1.8,1.6l-.7.3c-3,1.2-6.1,2.4-9.2,3.5-1.8.7-2.8,2-2.9,3.9,0,2.5-.2,5-.4,7.4,0,1.1-.1,2.3-.2,3.4,0,1.6-1,2.5-2.4,2.5h0c-.3,0-.6,0-.9-.1l-2.1-.6c-2.7-.7-5.6-1.5-8.4-2.3-.4-.1-.8-.2-1.2-.2-1.3,0-2.3.6-3.2,1.6-2.1,2.6-4.2,5.3-6.7,8.4-.7.8-1.4,1.3-2.1,1.3s-1.5-.5-2.2-1.3c-2.2-2.6-4.5-5.5-6.7-8.3-1.1-1.3-2.3-1.6-3.2-1.6s-.8,0-1.3.2c-1.3.3-2.5.7-3.8,1-2.1.6-4.3,1.1-6.4,1.8-1.2.4-2.2.2-2.8-.5-.5-.5-.8-1.3-.8-2.1,0-2.3-.1-4.7-.3-6.9,0-1.2-.2-2.4-.2-3.6-.1-2.4-1.6-3.4-2.8-3.9-3.1-1.1-6.3-2.4-9.3-3.5l-.9-.3c-.8-.3-1.4-.9-1.6-1.5-.2-.7,0-1.4.4-2.1,1.9-3,3.9-6,5.9-9.2,1.1-1.6,1.1-3.3,0-4.9-2-3-4-6.1-5.9-9-.5-.8-.7-1.7-.5-2.3.2-.7.8-1.2,1.7-1.6,3.2-1.3,6.6-2.6,10.1-3.9,1.7-.7,2.7-2,2.8-3.9.1-2.9.2-6.8.5-10.8.1-1.7.8-2.4,2.5-2.4s1.1,0,1.8.2c.6.2,1.3.3,2,.5,2.2.6,4.6,1.2,7.1,1.9.5.1,1,.2,1.5.2,1.4,0,2.5-.6,3.5-1.8,1.8-2.3,3.7-4.7,5.5-6.9l1-1.2c.7-.8,1.4-1.3,2.1-1.3s1.5.4,2.1,1.2c.8.9,1.5,1.8,2.3,2.8,1.5,1.8,3,3.6,4.4,5.5.9,1.1,2,1.7,3.3,1.7s.9,0,1.4-.2c3.2-.9,6.4-1.8,9.6-2.6l.7-.2c.3-.1.7-.1,1-.1,2,0,2.3,1.8,2.4,2.6,0,1.2.1,2.5.2,3.7.1,2.3.3,4.7.4,7,0,1.9,1.1,3.2,2.8,3.9,1.6.6,3.2,1.2,4.8,1.8,1.6.6,3.3,1.3,5,1.9,1.1.4,1.8,1,2,1.7.2.7,0,1.6-.6,2.5l-.8,1.3c-1.6,2.5-3.2,5-4.9,7.5-1.4,2-.8,3.8,0,4.9,1.9,2.8,3.8,5.7,5.6,8.5l.3.4c.5.8.7,1.6.5,2.3Z"/>
</svg>